<svg version="1.1" xmlns="http://www.w3.org/2000/svg" xmlns:xlink="http://www.w3.org/1999/xlink" x="0px" y="0px"
	 viewBox="0 0 720 485" style="enable-background:new 0 0 720 485;" xml:space="preserve">
<style type="text/css">
	.st0{display:none;}
	.st1{display:inline;fill:none;}
	.st2{display:inline;}
	.st3{font-family:'Tunga';}
	.st4{font-size:34px;}
	.st5{letter-spacing:2;}
	.st6{letter-spacing:3;}
	.st7{fill:none;stroke:#000000;stroke-width:6;stroke-miterlimit:10;}
	.st8{fill:#424743;}
	.st9{fill:none;stroke:#424743;stroke-miterlimit:10;}
	.st10{fill:none;stroke:#424743;stroke-width:2;stroke-miterlimit:10;}
	.st11{display:inline;fill:none;stroke:#424743;stroke-miterlimit:10;}
	.st12{fill:#BD8315;}
	.st13{display:inline;fill:#424743;}
	.st14{display:inline;fill:#FFFFFF;}
	.st15{display:none;fill:#424743;}
	.st16{font-size:300px;}
	.st17{display:inline;fill:#BD8315;}
	.st18{fill:none;stroke:#BD8315;stroke-width:3;stroke-miterlimit:10;}
</style>
<g id="_x30_3_-_Address" class="st0">
	<rect x="27.9" y="411" class="st1" width="802.1" height="22"/>
	<text transform="matrix(1 0 0 1 27.8776 429.9756)" class="st2 st3 st4 st5">2222 NE Oregon St. #217, Portland, OR 97232</text>
	<rect x="27.9" y="442" class="st1" width="332.1" height="29"/>
	<text transform="matrix(1 0 0 1 27.8776 460.9756)" class="st2 st3 st4 st6">971 319 6249 </text>
	<rect x="300" y="442" class="st1" width="398.8" height="29"/>
	<text transform="matrix(1 0 0 1 300.246 460.9756)" class="st2 st3 st4 st6">WWW.MINARIKARCH.COM</text>
</g>
<g id="_x30_2_-_Name" class="st0">
	<path class="st2" d="M690.1,398.5c3.4,0,5.6-1.8,6.4-5.5l-2.3-0.3c-0.3,2.2-1.3,3.7-4.1,3.7c-3.4,0-4.4-2.6-4.4-5.9v-0.9
		c0-3.4,0.8-5.9,4.4-5.9c2.7,0,3.7,1.5,4,3.9l2.3-0.4c-0.5-3.8-2.6-5.6-6.3-5.6c-5,0-6.7,3.4-6.7,8.1v1
		C683.5,395.3,685.3,398.5,690.1,398.5 M654.4,398.3h2.2v-8.8c0-3.9,1.2-5.8,4.8-5.8c3.1,0,3.2,1.9,3.2,3.8v10.9h2.2v-11.1
		c0-3.6-1.2-5.7-5-5.7c-2.7,0-4.3,1-5.3,2.2v-1.9h-2.2V398.3z M633.8,378.8h2.4v-3.2h-2.4V378.8z M633.9,398.3h2.2v-16.5h-2.2V398.3
		z M586.7,398.3h16.2v-4.2h-11.4v-6.7h10.3v-4.2h-10.3v-4.6h11.4v-4.2h-16.2V398.3z M560.1,385v-6.6h5c2.8,0,4.1,1,4.1,3.2
		c0,2.4-1.4,3.3-4.1,3.3H560.1z M569.3,398.3h5.2l-4.8-10.1c2.4-0.9,4.4-2.9,4.4-6.7c0-5.9-4-7.1-8.3-7.1h-10.4v23.9h4.8V389h4.7
		L569.3,398.3z M532.7,398.5c6.2,0,9.3-2.2,9.3-8.5v-15.6h-4.7V390c0,3-0.8,4.5-4.6,4.5c-3.7,0-4.5-1.5-4.5-4.5v-15.5h-4.8v15.6
		C523.4,396.3,526.4,398.5,532.7,398.5 M499.9,398.3h4.8v-19.7h7v-4.2h-18.8v4.2h7V398.3z M470.8,398.5c6.8,0,9.3-3.3,10.2-8.6
		l-5.2-0.6c-0.4,3.6-1.4,5-4.7,5c-4.2,0-5.5-2.3-5.5-7.2v-1.4c0-4.5,1.2-7.2,5.4-7.2c3.1,0,4.3,1.8,4.5,4.7l5.2-0.8
		c-0.7-5.6-3.4-8.2-9.5-8.2c-8.1,0-10.3,4.8-10.3,11.4v1.4C460.9,393.7,463.2,398.5,470.8,398.5 M433.2,398.3h16.2v-4.2H438v-6.7
		h10.3v-4.2H438v-4.6h11.4v-4.2h-16.2V398.3z M408.5,398.3h4.8v-19.7h7v-4.2h-18.8v4.2h7V398.3z M383.7,398.3h4.8v-23.9h-4.8V398.3z
		"/>
	<path class="st2" d="M366.5,398.3h4.8v-23.9h-4.8v8.5h-9v-8.5h-4.8v23.9h4.8v-11.1h9V398.3z M328.3,398.5c6.8,0,9.3-3.3,10.2-8.6
		l-5.2-0.6c-0.4,3.6-1.4,5-4.7,5c-4.2,0-5.5-2.3-5.5-7.2v-1.4c0-4.5,1.2-7.2,5.4-7.2c3.1,0,4.3,1.8,4.5,4.7l5.2-0.8
		c-0.7-5.6-3.4-8.2-9.5-8.2c-8.1,0-10.3,4.8-10.3,11.4v1.4C318.4,393.7,320.7,398.5,328.3,398.5 M293.2,385v-6.6h5
		c2.8,0,4.1,1,4.1,3.2c0,2.4-1.4,3.3-4.1,3.3H293.2z M302.4,398.3h5.2l-4.8-10.1c2.4-0.9,4.4-2.9,4.4-6.7c0-5.9-4-7.1-8.3-7.1h-10.4
		v23.9h4.8V389h4.7L302.4,398.3z M265.1,381.2l2.9,8.4h-5.7L265.1,381.2z M254.7,398.3h4.7l1.6-4.8h8.3l1.6,4.8h4.8l-8.1-24.1h-4.9
		L254.7,398.3z M212.6,398.3h5.3l-8.2-15.6l7.9-8.2h-5.6l-8.3,8.8v-8.8h-4.7v23.9h4.7v-9.2l2.7-2.9L212.6,398.3z M181.6,398.3h4.8
		v-23.9h-4.8V398.3z M153.8,385v-6.6h5c2.8,0,4.1,1,4.1,3.2c0,2.4-1.4,3.3-4.1,3.3H153.8z M162.9,398.3h5.2l-4.8-10.1
		c2.4-0.9,4.4-2.9,4.4-6.7c0-5.9-4-7.1-8.3-7.1H149v23.9h4.8V389h4.7L162.9,398.3z M126.8,381.2l2.9,8.4H124L126.8,381.2z
		 M116.4,398.3h4.7l1.6-4.8h8.3l1.6,4.8h4.8l-8.1-24.1h-4.9L116.4,398.3z M86.2,398.3h4.6v-16.7l9.3,16.7h4.7v-23.9h-4.7v14.8
		l-8.2-14.8h-5.8V398.3z M66.7,398.3h4.8v-23.9h-4.8V398.3z M27.9,398.3h4.6v-15.9l5.2,15.9H42l5.2-16v16H52v-23.9h-6.8L40,390.8
		l-5.3-16.4h-6.8V398.3z"/>
</g>
<g id="_x30_1_-_MA">
	<polygon class="st7" points="549.7,119.4 586.9,229.2 513,229.2 	"/>
	<polygon class="st7" points="414.2,341.8 475.2,341.8 496.1,279.3 603.8,279.3 625.1,341.8 688.2,341.8 582.4,28.6 518.9,28.6 	"/>
	<g>
		<g>
			<path d="M27.2,344.9H92V133l73.5,211.9h62.2L301.3,132v212.9h68.1V26.1h-96.8l-74.1,218.5L123.9,26.1H27.2V344.9z"/>
		</g>
	</g>
</g>
<g id="Guides" class="st0">
	<rect class="st8" width="720" height="424"/>
	<path class="st8" d="M689.6,398c3.1,0,5-1.6,5.7-4.9l-2-0.3c-0.3,2-1.2,3.3-3.7,3.3c-3,0-3.9-2.3-3.9-5.3V390
		c0-3.1,0.7-5.3,3.9-5.3c2.4,0,3.3,1.4,3.6,3.5l2.1-0.4c-0.5-3.4-2.4-5-5.6-5c-4.4,0-6,3-6,7.2v0.9C683.8,395.1,685.4,398,689.6,398
		 M657.7,397.8h2v-7.9c0-3.5,1.1-5.2,4.3-5.2c2.7,0,2.9,1.7,2.9,3.4v9.7h2v-9.9c0-3.2-1.1-5.1-4.4-5.1c-2.4,0-3.9,0.9-4.7,2V383h-2
		V397.8z M639.3,380.4h2.1v-2.9h-2.1V380.4z M639.4,397.8h2V383h-2V397.8z M591.1,397.8h14.5v-3.8h-10.2v-6h9.2v-3.7h-9.2v-4.1h10.2
		v-3.8h-14.5V397.8z M563.4,385.9V380h4.5c2.5,0,3.7,0.9,3.7,2.9c0,2.1-1.2,3-3.7,3H563.4z M571.5,397.8h4.6l-4.3-9
		c2.2-0.8,4-2.6,4-6c0-5.3-3.6-6.4-7.4-6.4h-9.3v21.4h4.3v-8.4h4.2L571.5,397.8z M534.8,398c5.6,0,8.3-2,8.3-7.6v-14H539v13.9
		c0,2.7-0.7,4-4.1,4c-3.3,0-4-1.3-4-4.1v-13.8h-4.3v14C526.5,396,529.2,398,534.8,398 M501.5,397.8h4.3v-17.6h6.2v-3.8h-16.8v3.8
		h6.3V397.8z M473.5,398c6,0,8.3-3,9.1-7.7l-4.6-0.5c-0.3,3.2-1.2,4.5-4.2,4.5c-3.8,0-4.9-2.1-4.9-6.5v-1.2c0-4,1.1-6.5,4.8-6.5
		c2.7,0,3.8,1.6,4,4.2l4.6-0.7c-0.6-5-3.1-7.3-8.5-7.3c-7.3,0-9.3,4.3-9.3,10.2v1.2C464.6,393.6,466.7,398,473.5,398 M435.8,397.8
		h14.5v-3.8h-10.2v-6h9.2v-3.7h-9.2v-4.1h10.2v-3.8h-14.5V397.8z M410.7,397.8h4.3v-17.6h6.2v-3.8h-16.8v3.8h6.3V397.8z
		 M385.5,397.8h4.3v-21.4h-4.3V397.8z"/>
	<path class="st8" d="M365.1,397.8h4.3v-21.4h-4.3v7.7H357v-7.7h-4.3v21.4h4.3v-9.9h8.1V397.8z M328.9,398c6,0,8.3-3,9.1-7.7
		l-4.6-0.5c-0.3,3.2-1.2,4.5-4.2,4.5c-3.8,0-4.9-2.1-4.9-6.5v-1.2c0-4,1.1-6.5,4.8-6.5c2.7,0,3.8,1.6,4,4.2l4.6-0.7
		c-0.6-5-3.1-7.3-8.5-7.3c-7.3,0-9.3,4.3-9.3,10.2v1.2C320,393.6,322.1,398,328.9,398 M293.5,385.9V380h4.5c2.5,0,3.7,0.9,3.7,2.9
		c0,2.1-1.2,3-3.7,3H293.5z M301.7,397.8h4.6l-4.3-9c2.2-0.8,4-2.6,4-6c0-5.3-3.6-6.4-7.4-6.4h-9.3v21.4h4.3v-8.4h4.2L301.7,397.8z
		 M265.4,382.5l2.6,7.5h-5.1L265.4,382.5z M256,397.8h4.2l1.4-4.3h7.4l1.5,4.3h4.3l-7.3-21.5h-4.4L256,397.8z M220.4,397.8h4.7
		l-7.4-14l7-7.4h-5.1l-7.4,7.9v-7.9H208v21.4h4.2v-8.3l2.4-2.6L220.4,397.8z M187.6,397.8h4.3v-21.4h-4.3V397.8z M159.8,385.9V380
		h4.5c2.5,0,3.7,0.9,3.7,2.9c0,2.1-1.2,3-3.7,3H159.8z M167.9,397.8h4.6l-4.3-9c2.2-0.8,4-2.6,4-6c0-5.3-3.6-6.4-7.4-6.4h-9.3v21.4
		h4.3v-8.4h4.2L167.9,397.8z M131.6,382.5l2.6,7.5h-5.1L131.6,382.5z M122.3,397.8h4.2l1.4-4.3h7.4l1.5,4.3h4.3l-7.3-21.5h-4.4
		L122.3,397.8z M91.2,397.8h4.1v-15l8.3,15h4.2v-21.4h-4.2v13.3l-7.4-13.3h-5.2V397.8z M70.8,397.8h4.3v-21.4h-4.3V397.8z
		 M33.1,397.8h4.1v-14.2l4.6,14.2h3.9l4.6-14.3v14.3h4.3v-21.4h-6.1l-4.7,14.6l-4.7-14.6h-6.1V397.8z"/>
	<g>
		<g class="st2">
			<path class="st9" d="M680.7,405h17.1v-4.4h-12v-7h10.8v-4.4h-10.8v-4.9h12v-4.5h-17.1V405z M648,390.9V384h5.3
				c2.9,0,4.3,1.1,4.3,3.4c0,2.5-1.4,3.5-4.3,3.5H648z M657.7,405h5.4l-5.1-10.6c2.6-1,4.7-3.1,4.7-7c0-6.2-4.3-7.5-8.7-7.5h-11V405
				h5.1v-9.9h4.9L657.7,405z M614.5,405.2c6.6,0,9.8-2.3,9.8-8.9v-16.4h-4.9v16.3c0,3.2-0.8,4.7-4.9,4.7c-3.9,0-4.7-1.6-4.7-4.8
				v-16.3h-5.1v16.5C604.7,402.9,607.8,405.2,614.5,405.2 M575.2,405h5.1v-20.7h7.4v-4.5h-19.8v4.5h7.4V405z M542.3,405.1
				c7.1,0,9.8-3.5,10.7-9.1l-5.4-0.6c-0.4,3.8-1.4,5.3-4.9,5.3c-4.4,0-5.7-2.5-5.7-7.6v-1.4c0-4.7,1.3-7.6,5.7-7.6
				c3.2,0,4.5,1.8,4.7,4.9l5.5-0.8c-0.7-5.9-3.6-8.6-10-8.6c-8.6,0-10.9,5-10.9,12.1v1.4C531.8,400.1,534.3,405.1,542.3,405.1
				 M497.9,405H515v-4.4h-12v-7h10.8v-4.4H503v-4.9h12v-4.5h-17.1V405z M468.4,405h5.1v-20.7h7.4v-4.5H461v4.5h7.4V405z M438.7,405
				h5.1v-25.2h-5.1V405z"/>
			<path class="st8" d="M414.7,405h5.1v-25.2h-5.1v9h-9.5v-9h-5.1V405h5.1v-11.7h9.5V405z M372.2,405.1c7.1,0,9.8-3.5,10.7-9.1
				l-5.4-0.6c-0.4,3.8-1.4,5.3-4.9,5.3c-4.4,0-5.7-2.5-5.7-7.6v-1.4c0-4.7,1.3-7.6,5.7-7.6c3.2,0,4.5,1.8,4.7,4.9l5.5-0.8
				c-0.7-5.9-3.6-8.6-10-8.6c-8.6,0-10.9,5-10.9,12.1v1.4C361.7,400.1,364.2,405.1,372.2,405.1 M330.5,390.9V384h5.3
				c2.9,0,4.3,1.1,4.3,3.4c0,2.5-1.4,3.5-4.3,3.5H330.5z M340.1,405h5.4l-5.1-10.6c2.6-1,4.7-3.1,4.7-7c0-6.2-4.3-7.5-8.7-7.5h-11
				V405h5.1v-9.9h4.9L340.1,405z M297.4,387l3,8.9h-6L297.4,387z M286.4,405h4.9l1.7-5.1h8.7l1.7,5.1h5.1l-8.6-25.4h-5.1L286.4,405z
				 M244.5,405h5.5l-8.7-16.5l8.3-8.7h-5.9l-8.8,9.3v-9.3h-5V405h5v-9.7l2.9-3L244.5,405z M205.9,405h5.1v-25.2h-5.1V405z
				 M173.2,390.9V384h5.3c2.9,0,4.3,1.1,4.3,3.4c0,2.5-1.4,3.5-4.3,3.5H173.2z M182.8,405h5.4l-5.1-10.6c2.6-1,4.7-3.1,4.7-7
				c0-6.2-4.3-7.5-8.7-7.5h-11V405h5.1v-9.9h4.9L182.8,405z M140,387l3,8.9h-6L140,387z M129,405h4.9l1.7-5.1h8.7l1.7,5.1h5.1
				l-8.6-25.4h-5.1L129,405z M92.5,405h4.9v-17.6l9.8,17.6h5v-25.2h-4.9v15.6l-8.7-15.6h-6.1V405z M68.5,405h5.1v-25.2h-5.1V405z
				 M24.1,405h4.8v-16.7l5.5,16.7H39l5.5-16.8V405h5.1v-25.2h-7.2l-5.5,17.2l-5.5-17.2h-7.2V405z"/>
		</g>
	</g>
	<g>
		<g class="st2">
			<path class="st10" d="M550.6,116.7l38.2,112.6H513L550.6,116.7z M411.6,344.9h62.7l21.4-64.2h110.5l21.9,64.2h64.7L584.3,23.5
				h-65.2L411.6,344.9z M27.2,344.9h61.1V133l69.3,211.9h58.6L285.4,132v212.9h64.2V26.1h-91.2l-69.8,218.5L118.3,26.1H27.2V344.9z"
				/>
		</g>
	</g>
	<g id="Layer_5" class="st2">
	</g>
	<g id="Layer_5_copy">
		<polygon class="st11" points="550.6,116.7 588.8,229.3 513,229.3 		"/>
		<polygon class="st11" points="411.6,344.9 474.3,344.9 495.6,280.8 606.2,280.8 628.1,344.9 692.8,344.9 584.3,23.5 519.1,23.5 		
			"/>
	</g>
	<g>
		<g class="st2">
			<path class="st8" d="M27.2,344.9h61.1V133l69.3,211.9h58.6L285.4,132v212.9h64.2V26.1h-91.2l-69.8,218.5L118.3,26.1H27.2V344.9z"
				/>
		</g>
	</g>
	<g>
		<g class="st2">
			<path class="st8" d="M550.6,116.7l38.2,112.6H513L550.6,116.7z M411.6,344.9h62.7l21.4-64.2h110.5l21.9,64.2h64.7L584.3,23.5
				h-65.2L411.6,344.9z M27.2,344.9h61.1V133l69.3,211.9h58.6L285.4,132v212.9h64.2V26.1h-91.2l-69.8,218.5L118.3,26.1H27.2V344.9z"
				/>
		</g>
	</g>
	<g>
		<g class="st2">
			<path class="st8" d="M532.5,134.8l32.4,95.5h-64.3L532.5,134.8z M414.6,328.3h53.1l18.1-54.4h93.7l18.6,54.4H653L561,55.7h-55.3
				L414.6,328.3z M88.6,328.3h51.8V148.6l58.7,179.7h49.7l58.7-180.6v180.6H362V57.9h-77.3l-59.2,185.3L165.9,57.9H88.6V328.3z"/>
		</g>
	</g>
	<g>
		<g class="st2">
			<path class="st12" d="M550.6,116.7l38.2,112.6H513L550.6,116.7z M411.6,344.9h62.7l21.4-64.2h110.5l21.9,64.2h64.7L584.3,23.5
				h-65.2L411.6,344.9z M27.2,344.9h61.1V133l69.3,211.9h58.6L285.4,132v212.9h64.2V26.1h-91.2l-69.8,218.5L118.3,26.1H27.2V344.9z"
				/>
		</g>
	</g>
	<g id="Layer_3">
		<polygon class="st13" points="411.6,344.9 474.3,344.9 495.6,280.8 606.2,280.8 628.1,344.9 692.8,344.9 584.3,23.5 519.1,23.5 		
			"/>
		<polygon class="st14" points="550.6,116.7 588.8,229.3 513,229.3 		"/>
	</g>
	<g>
		<g class="st2">
			<path class="st12" d="M27.2,344.9h61.1V133l69.3,211.9h58.6L285.4,132v212.9h64.2V26.1h-91.2l-69.8,218.5L118.3,26.1H27.2V344.9z
				"/>
		</g>
	</g>
	<g class="st2">
		<g>
			<path class="st15" d="M501.7,127.2l35.5,104.7h-70.6L501.7,127.2z M372.4,339.4h58.3l19.9-59.7h102.8l20.4,59.7h60.1L532.9,40.5
				h-60.6L372.4,339.4z M35.9,339.4h56.8v-197l64.4,197h54.5l64.4-198v198h59.7V42.9H251l-64.9,203.2L120.7,42.9H35.9V339.4z"/>
		</g>
	</g>
	<rect x="26" y="101.2" class="st1" width="746" height="379"/>
	<text transform="matrix(1 0 0 1 26 268.6492)" class="st12 st3 st16">(</text>
	<g>
		<rect x="-56" y="101.2" class="st1" width="746" height="379"/>
		<text transform="matrix(-1 0 0 1 690 268.6492)" class="st17 st3 st16">(</text>
	</g>
	<line class="st18" x1="38" y1="24" x2="38" y2="347"/>
	<line class="st18" x1="695.4" y1="24" x2="695.4" y2="347"/>
</g>
</svg>
